<svg width="195" height="56" viewBox="0 0 195 56" fill="none" xmlns="http://www.w3.org/2000/svg">
<path d="M65.9474 18.7812C65.9474 18.1042 66.0594 17.4792 66.2833 16.9062C66.5125 16.3281 66.8354 15.8281 67.2521 15.4062C67.6739 14.9844 68.1791 14.6536 68.7677 14.4141C69.3562 14.1693 70.0151 14.0469 70.7442 14.0469C71.1192 14.0469 71.4838 14.0807 71.838 14.1484C72.1922 14.2109 72.5255 14.3125 72.838 14.4531C73.1557 14.5885 73.4448 14.7656 73.7052 14.9844C73.9708 15.2031 74.2026 15.4688 74.4005 15.7812V12.6094L72.3536 10.8594L78.1271 10.625V21.0938L80.2442 23H74.4005V21.5703C74.0307 22.1589 73.5489 22.5964 72.9552 22.8828C72.3666 23.1641 71.7078 23.3047 70.9786 23.3047C70.0932 23.3047 69.3328 23.1823 68.6974 22.9375C68.062 22.6927 67.5411 22.3646 67.1349 21.9531C66.7286 21.5365 66.4291 21.0547 66.2364 20.5078C66.0437 19.9609 65.9474 19.3854 65.9474 18.7812ZM70.0567 18.6797C70.0567 19.1068 70.1088 19.4818 70.213 19.8047C70.3224 20.1276 70.4734 20.3984 70.6661 20.6172C70.8588 20.8307 71.088 20.9922 71.3536 21.1016C71.6192 21.2109 71.9109 21.2656 72.2286 21.2656C72.4942 21.2656 72.7547 21.2188 73.0099 21.125C73.2703 21.0312 73.5021 20.8828 73.7052 20.6797C73.9135 20.4714 74.0802 20.2031 74.2052 19.875C74.3354 19.5469 74.4005 19.1484 74.4005 18.6797C74.4005 18.1953 74.338 17.7865 74.213 17.4531C74.0932 17.1146 73.9317 16.8411 73.7286 16.6328C73.5307 16.4193 73.3015 16.2656 73.0411 16.1719C72.7807 16.0729 72.5099 16.0234 72.2286 16.0234C71.9109 16.0234 71.6192 16.0807 71.3536 16.1953C71.088 16.3099 70.8588 16.4818 70.6661 16.7109C70.4734 16.9349 70.3224 17.2135 70.213 17.5469C70.1088 17.875 70.0567 18.2526 70.0567 18.6797ZM81.1817 18.8047C81.1817 18.1693 81.2729 17.6094 81.4552 17.125C81.6427 16.6406 81.8927 16.224 82.2052 15.875C82.5229 15.5208 82.8901 15.2266 83.3067 14.9922C83.7286 14.7578 84.1765 14.5703 84.6505 14.4297C85.1245 14.2891 85.6114 14.1901 86.1114 14.1328C86.6166 14.0755 87.1062 14.0469 87.5802 14.0469C88.3354 14.0469 89.0385 14.1302 89.6896 14.2969C90.3458 14.4635 90.9135 14.7318 91.3927 15.1016C91.8719 15.4714 92.2469 15.9583 92.5177 16.5625C92.7937 17.1615 92.9317 17.8932 92.9317 18.7578H85.2989C85.3198 19.2995 85.4109 19.7474 85.5724 20.1016C85.739 20.4505 85.9526 20.7292 86.213 20.9375C86.4734 21.1406 86.7703 21.2839 87.1036 21.3672C87.437 21.4505 87.7807 21.4922 88.1349 21.4922C88.4526 21.4922 88.7963 21.474 89.1661 21.4375C89.5359 21.401 89.9057 21.3333 90.2755 21.2344C90.6453 21.1302 90.9995 20.9896 91.338 20.8125C91.6765 20.6354 91.9708 20.4036 92.2208 20.1172L93.0177 20.7422C92.8875 21.0599 92.7052 21.3438 92.4708 21.5938C92.2364 21.8438 91.9682 22.0651 91.6661 22.2578C91.364 22.4453 91.0359 22.6068 90.6817 22.7422C90.3328 22.8724 89.9734 22.9792 89.6036 23.0625C89.2338 23.1458 88.864 23.2057 88.4942 23.2422C88.1245 23.2839 87.7703 23.3047 87.4317 23.3047C86.4786 23.3047 85.6166 23.2057 84.8458 23.0078C84.0802 22.8099 83.4239 22.5208 82.8771 22.1406C82.3354 21.7552 81.9161 21.2839 81.6192 20.7266C81.3276 20.1641 81.1817 19.5234 81.1817 18.8047ZM89.1505 17.5391C89.1505 17.1536 89.114 16.8307 89.0411 16.5703C88.9734 16.3047 88.8692 16.0911 88.7286 15.9297C88.588 15.7682 88.4109 15.6536 88.1974 15.5859C87.989 15.513 87.7442 15.4766 87.463 15.4766C86.8692 15.4766 86.3979 15.6562 86.0489 16.0156C85.7 16.375 85.4708 16.8828 85.3614 17.5391H89.1505ZM95.588 16.3438L93.3849 14.3516H100.51L99.6427 15.5859L101.744 21.0312L103.377 15.9062L102.158 14.3516H108.322L106.299 15.9688L103.408 23H98.963L95.588 16.3438ZM108.838 18.6094C108.838 17.8698 108.997 17.2161 109.315 16.6484C109.637 16.0807 110.08 15.6042 110.643 15.2188C111.205 14.8333 111.869 14.5417 112.635 14.3438C113.4 14.1458 114.229 14.0469 115.119 14.0469C115.973 14.0469 116.713 14.1328 117.338 14.3047C117.968 14.4714 118.489 14.6797 118.9 14.9297L120.533 13.9844V17.7656L118.58 18C118.481 17.6667 118.346 17.3568 118.174 17.0703C118.002 16.7839 117.794 16.5365 117.549 16.3281C117.309 16.1198 117.036 15.9583 116.729 15.8438C116.421 15.724 116.085 15.6641 115.721 15.6641C115.387 15.6641 115.054 15.7109 114.721 15.8047C114.393 15.8984 114.096 16.0599 113.83 16.2891C113.57 16.513 113.356 16.8151 113.19 17.1953C113.028 17.5703 112.947 18.0417 112.947 18.6094C112.947 19.0885 113.031 19.5078 113.197 19.8672C113.369 20.2266 113.593 20.5286 113.869 20.7734C114.15 21.013 114.471 21.1927 114.83 21.3125C115.19 21.4323 115.562 21.4922 115.947 21.4922C116.275 21.4922 116.622 21.474 116.986 21.4375C117.356 21.3958 117.718 21.3203 118.072 21.2109C118.432 21.1016 118.773 20.9505 119.096 20.7578C119.419 20.5651 119.7 20.3151 119.94 20.0078L120.736 20.6328C120.58 21.0286 120.338 21.3906 120.01 21.7188C119.687 22.0469 119.294 22.3281 118.83 22.5625C118.372 22.7969 117.851 22.9792 117.268 23.1094C116.69 23.2396 116.07 23.3047 115.408 23.3047C114.367 23.3047 113.44 23.2031 112.627 23C111.815 22.7969 111.127 22.4974 110.565 22.1016C110.002 21.7057 109.572 21.2161 109.275 20.6328C108.984 20.0443 108.838 19.3698 108.838 18.6094ZM124.002 21.0938V12.6094L121.955 10.8594L127.729 10.625V15.9609C128.119 15.3464 128.619 14.875 129.229 14.5469C129.843 14.2135 130.539 14.0469 131.315 14.0469C131.919 14.0469 132.455 14.1406 132.924 14.3281C133.398 14.5104 133.794 14.7865 134.111 15.1562C134.434 15.5208 134.679 15.9792 134.846 16.5312C135.012 17.0781 135.096 17.7135 135.096 18.4375V21.0938L137.213 23H129.932L131.369 21.0938V18.6016C131.369 18.2682 131.338 17.9531 131.275 17.6562C131.213 17.3594 131.114 17.099 130.979 16.875C130.848 16.651 130.679 16.474 130.471 16.3438C130.262 16.2135 130.012 16.1484 129.721 16.1484C129.429 16.1484 129.161 16.2135 128.916 16.3438C128.671 16.4688 128.46 16.6536 128.283 16.8984C128.106 17.138 127.968 17.4349 127.869 17.7891C127.775 18.138 127.729 18.5391 127.729 18.9922V21.0938L129.166 23H121.885L124.002 21.0938ZM137.963 18.8047C137.963 18.1693 138.054 17.6094 138.236 17.125C138.424 16.6406 138.674 16.224 138.986 15.875C139.304 15.5208 139.671 15.2266 140.088 14.9922C140.51 14.7578 140.958 14.5703 141.432 14.4297C141.906 14.2891 142.393 14.1901 142.893 14.1328C143.398 14.0755 143.887 14.0469 144.361 14.0469C145.117 14.0469 145.82 14.1302 146.471 14.2969C147.127 14.4635 147.695 14.7318 148.174 15.1016C148.653 15.4714 149.028 15.9583 149.299 16.5625C149.575 17.1615 149.713 17.8932 149.713 18.7578H142.08C142.101 19.2995 142.192 19.7474 142.354 20.1016C142.52 20.4505 142.734 20.7292 142.994 20.9375C143.255 21.1406 143.552 21.2839 143.885 21.3672C144.218 21.4505 144.562 21.4922 144.916 21.4922C145.234 21.4922 145.578 21.474 145.947 21.4375C146.317 21.401 146.687 21.3333 147.057 21.2344C147.427 21.1302 147.781 20.9896 148.119 20.8125C148.458 20.6354 148.752 20.4036 149.002 20.1172L149.799 20.7422C149.669 21.0599 149.486 21.3438 149.252 21.5938C149.018 21.8438 148.749 22.0651 148.447 22.2578C148.145 22.4453 147.817 22.6068 147.463 22.7422C147.114 22.8724 146.755 22.9792 146.385 23.0625C146.015 23.1458 145.645 23.2057 145.275 23.2422C144.906 23.2839 144.552 23.3047 144.213 23.3047C143.26 23.3047 142.398 23.2057 141.627 23.0078C140.861 22.8099 140.205 22.5208 139.658 22.1406C139.117 21.7552 138.697 21.2839 138.4 20.7266C138.109 20.1641 137.963 19.5234 137.963 18.8047ZM145.932 17.5391C145.932 17.1536 145.895 16.8307 145.822 16.5703C145.755 16.3047 145.65 16.0911 145.51 15.9297C145.369 15.7682 145.192 15.6536 144.979 15.5859C144.77 15.513 144.525 15.4766 144.244 15.4766C143.65 15.4766 143.179 15.6562 142.83 16.0156C142.481 16.375 142.252 16.8828 142.143 17.5391H145.932ZM152.971 16.4922L150.854 14.5859L156.697 14.3516V15.7969C157.067 15.2031 157.552 14.763 158.15 14.4766C158.755 14.1901 159.437 14.0469 160.197 14.0469C161.005 14.0469 161.716 14.1719 162.33 14.4219C162.95 14.6667 163.468 15.0052 163.885 15.4375C164.302 15.8646 164.617 16.3646 164.83 16.9375C165.044 17.5104 165.15 18.125 165.15 18.7812C165.15 19.3646 165.057 19.9297 164.869 20.4766C164.682 21.0182 164.39 21.5 163.994 21.9219C163.598 22.3385 163.091 22.6745 162.471 22.9297C161.856 23.1797 161.117 23.3047 160.252 23.3047C159.46 23.3047 158.762 23.1693 158.158 22.8984C157.554 22.6224 157.067 22.1953 156.697 21.6172V24.5L159.596 26.4062H150.854L152.971 24.5V16.4922ZM156.697 18.6797C156.697 19.1484 156.76 19.5469 156.885 19.875C157.015 20.2031 157.182 20.4714 157.385 20.6797C157.593 20.8828 157.825 21.0312 158.08 21.125C158.341 21.2188 158.604 21.2656 158.869 21.2656C159.187 21.2656 159.479 21.2109 159.744 21.1016C160.01 20.9922 160.239 20.8307 160.432 20.6172C160.624 20.3984 160.773 20.1276 160.877 19.8047C160.986 19.4818 161.041 19.1068 161.041 18.6797C161.041 18.2526 160.986 17.875 160.877 17.5469C160.773 17.2135 160.624 16.9349 160.432 16.7109C160.239 16.4818 160.01 16.3099 159.744 16.1953C159.479 16.0807 159.187 16.0234 158.869 16.0234C158.588 16.0234 158.317 16.0729 158.057 16.1719C157.796 16.2656 157.565 16.4193 157.361 16.6328C157.164 16.8411 157.002 17.1146 156.877 17.4531C156.757 17.7865 156.697 18.1953 156.697 18.6797ZM63.6349 40.9844C63.6349 40.5677 63.7208 40.2083 63.8927 39.9062C64.0646 39.599 64.2963 39.3385 64.588 39.125C64.8797 38.9062 65.2208 38.7292 65.6114 38.5938C66.0021 38.4583 66.4161 38.3542 66.8536 38.2812C67.2911 38.2031 67.739 38.151 68.1974 38.125C68.6609 38.0938 69.1114 38.0781 69.5489 38.0781C69.7937 38.0781 70.0515 38.0833 70.3224 38.0938C70.5984 38.099 70.8745 38.1068 71.1505 38.1172C71.1401 37.7422 71.1062 37.4089 71.0489 37.1172C70.9969 36.8203 70.9057 36.5729 70.7755 36.375C70.6505 36.1719 70.4734 36.0182 70.2442 35.9141C70.0203 35.8047 69.7312 35.75 69.3771 35.75C69.1479 35.75 68.9213 35.7786 68.6974 35.8359C68.4734 35.8932 68.2703 35.9844 68.088 36.1094C67.9057 36.2344 67.7495 36.3958 67.6192 36.5938C67.4942 36.7865 67.4135 37.0234 67.3771 37.3047L64.2442 36.875C64.2442 36.5208 64.3146 36.2057 64.4552 35.9297C64.601 35.6484 64.7989 35.4036 65.0489 35.1953C65.2989 34.9818 65.5932 34.8021 65.9317 34.6562C66.2755 34.5104 66.6427 34.3932 67.0333 34.3047C67.4291 34.2161 67.8406 34.151 68.2677 34.1094C68.7 34.0677 69.1297 34.0469 69.5567 34.0469C70.0724 34.0469 70.5646 34.0703 71.0333 34.1172C71.5073 34.1589 71.9474 34.237 72.3536 34.3516C72.7599 34.4661 73.1271 34.6198 73.4552 34.8125C73.7885 35.0052 74.0724 35.25 74.3067 35.5469C74.5411 35.8438 74.7208 36.1979 74.8458 36.6094C74.976 37.0208 75.0411 37.5 75.0411 38.0469V40.7969C75.0411 41.2135 75.1427 41.5052 75.3458 41.6719C75.5541 41.8385 75.8354 41.9219 76.1896 41.9219V42.8203C76.1427 42.8672 76.062 42.9193 75.9474 42.9766C75.838 43.0286 75.6922 43.0781 75.5099 43.125C75.3328 43.1771 75.1219 43.2188 74.8771 43.25C74.6323 43.2865 74.351 43.3047 74.0333 43.3047C73.6479 43.3047 73.3015 43.2839 72.9942 43.2422C72.687 43.2057 72.4187 43.138 72.1896 43.0391C71.9656 42.9453 71.7781 42.8151 71.6271 42.6484C71.476 42.4818 71.3614 42.2708 71.2833 42.0156C71.0229 42.2448 70.7286 42.4401 70.4005 42.6016C70.0724 42.763 69.7234 42.8958 69.3536 43C68.989 43.1042 68.6114 43.1797 68.2208 43.2266C67.8354 43.2786 67.4552 43.3047 67.0802 43.3047C66.8302 43.3047 66.5724 43.2917 66.3067 43.2656C66.0411 43.2396 65.7807 43.1927 65.5255 43.125C65.2703 43.0625 65.0281 42.9766 64.7989 42.8672C64.5698 42.7526 64.3692 42.6094 64.1974 42.4375C64.0255 42.2656 63.8875 42.0599 63.7833 41.8203C63.6844 41.5807 63.6349 41.3021 63.6349 40.9844ZM67.6739 40.6406C67.6739 40.7812 67.7104 40.9089 67.7833 41.0234C67.8562 41.138 67.9552 41.2344 68.0802 41.3125C68.2052 41.3906 68.351 41.4505 68.5177 41.4922C68.6844 41.5339 68.8614 41.5547 69.0489 41.5547C69.2416 41.5547 69.4552 41.5339 69.6896 41.4922C69.9239 41.4453 70.1453 41.3698 70.3536 41.2656C70.5672 41.1615 70.7495 41.026 70.9005 40.8594C71.0515 40.6875 71.1375 40.4792 71.1583 40.2344V39.4375C71.0854 39.4323 71.0151 39.4297 70.9474 39.4297C70.8849 39.4297 70.825 39.4297 70.7677 39.4297C70.2104 39.4297 69.7364 39.4583 69.3458 39.5156C68.9552 39.5677 68.6349 39.6458 68.3849 39.75C68.1401 39.8542 67.9604 39.9818 67.8458 40.1328C67.7312 40.2839 67.6739 40.4531 67.6739 40.6406ZM77.463 38.6094C77.463 37.8698 77.6219 37.2161 77.9396 36.6484C78.2625 36.0807 78.7052 35.6042 79.2677 35.2188C79.8302 34.8333 80.4942 34.5417 81.2599 34.3438C82.0255 34.1458 82.8536 34.0469 83.7442 34.0469C84.5984 34.0469 85.338 34.1328 85.963 34.3047C86.5932 34.4714 87.114 34.6797 87.5255 34.9297L89.1583 33.9844V37.7656L87.2052 38C87.1062 37.6667 86.9708 37.3568 86.7989 37.0703C86.6271 36.7839 86.4187 36.5365 86.1739 36.3281C85.9344 36.1198 85.6609 35.9583 85.3536 35.8438C85.0463 35.724 84.7104 35.6641 84.3458 35.6641C84.0125 35.6641 83.6791 35.7109 83.3458 35.8047C83.0177 35.8984 82.7208 36.0599 82.4552 36.2891C82.1948 36.513 81.9812 36.8151 81.8146 37.1953C81.6531 37.5703 81.5724 38.0417 81.5724 38.6094C81.5724 39.0885 81.6557 39.5078 81.8224 39.8672C81.9942 40.2266 82.2182 40.5286 82.4942 40.7734C82.7755 41.013 83.0958 41.1927 83.4552 41.3125C83.8146 41.4323 84.187 41.4922 84.5724 41.4922C84.9005 41.4922 85.2469 41.474 85.6114 41.4375C85.9812 41.3958 86.3432 41.3203 86.6974 41.2109C87.0567 41.1016 87.3979 40.9505 87.7208 40.7578C88.0437 40.5651 88.325 40.3151 88.5646 40.0078L89.3614 40.6328C89.2052 41.0286 88.963 41.3906 88.6349 41.7188C88.312 42.0469 87.9187 42.3281 87.4552 42.5625C86.9969 42.7969 86.476 42.9792 85.8927 43.1094C85.3146 43.2396 84.6948 43.3047 84.0333 43.3047C82.9916 43.3047 82.0646 43.2031 81.2521 43C80.4396 42.7969 79.7521 42.4974 79.1896 42.1016C78.6271 41.7057 78.1974 41.2161 77.9005 40.6328C77.6088 40.0443 77.463 39.3698 77.463 38.6094ZM90.9317 40.9844C90.9317 40.5677 91.0177 40.2083 91.1896 39.9062C91.3614 39.599 91.5932 39.3385 91.8849 39.125C92.1765 38.9062 92.5177 38.7292 92.9083 38.5938C93.2989 38.4583 93.713 38.3542 94.1505 38.2812C94.588 38.2031 95.0359 38.151 95.4942 38.125C95.9578 38.0938 96.4083 38.0781 96.8458 38.0781C97.0906 38.0781 97.3484 38.0833 97.6192 38.0938C97.8953 38.099 98.1713 38.1068 98.4474 38.1172C98.437 37.7422 98.4031 37.4089 98.3458 37.1172C98.2937 36.8203 98.2026 36.5729 98.0724 36.375C97.9474 36.1719 97.7703 36.0182 97.5411 35.9141C97.3172 35.8047 97.0281 35.75 96.6739 35.75C96.4448 35.75 96.2182 35.7786 95.9942 35.8359C95.7703 35.8932 95.5672 35.9844 95.3849 36.1094C95.2026 36.2344 95.0463 36.3958 94.9161 36.5938C94.7911 36.7865 94.7104 37.0234 94.6739 37.3047L91.5411 36.875C91.5411 36.5208 91.6114 36.2057 91.7521 35.9297C91.8979 35.6484 92.0958 35.4036 92.3458 35.1953C92.5958 34.9818 92.8901 34.8021 93.2286 34.6562C93.5724 34.5104 93.9396 34.3932 94.3302 34.3047C94.726 34.2161 95.1375 34.151 95.5646 34.1094C95.9969 34.0677 96.4265 34.0469 96.8536 34.0469C97.3692 34.0469 97.8614 34.0703 98.3302 34.1172C98.8041 34.1589 99.2442 34.237 99.6505 34.3516C100.057 34.4661 100.424 34.6198 100.752 34.8125C101.085 35.0052 101.369 35.25 101.604 35.5469C101.838 35.8438 102.018 36.1979 102.143 36.6094C102.273 37.0208 102.338 37.5 102.338 38.0469V40.7969C102.338 41.2135 102.44 41.5052 102.643 41.6719C102.851 41.8385 103.132 41.9219 103.486 41.9219V42.8203C103.44 42.8672 103.359 42.9193 103.244 42.9766C103.135 43.0286 102.989 43.0781 102.807 43.125C102.63 43.1771 102.419 43.2188 102.174 43.25C101.929 43.2865 101.648 43.3047 101.33 43.3047C100.945 43.3047 100.598 43.2839 100.291 43.2422C99.9838 43.2057 99.7156 43.138 99.4864 43.0391C99.2625 42.9453 99.075 42.8151 98.9239 42.6484C98.7729 42.4818 98.6583 42.2708 98.5802 42.0156C98.3198 42.2448 98.0255 42.4401 97.6974 42.6016C97.3692 42.763 97.0203 42.8958 96.6505 43C96.2859 43.1042 95.9083 43.1797 95.5177 43.2266C95.1323 43.2786 94.7521 43.3047 94.3771 43.3047C94.1271 43.3047 93.8692 43.2917 93.6036 43.2656C93.338 43.2396 93.0776 43.1927 92.8224 43.125C92.5672 43.0625 92.325 42.9766 92.0958 42.8672C91.8666 42.7526 91.6661 42.6094 91.4942 42.4375C91.3224 42.2656 91.1844 42.0599 91.0802 41.8203C90.9812 41.5807 90.9317 41.3021 90.9317 40.9844ZM94.9708 40.6406C94.9708 40.7812 95.0073 40.9089 95.0802 41.0234C95.1531 41.138 95.2521 41.2344 95.3771 41.3125C95.5021 41.3906 95.6479 41.4505 95.8146 41.4922C95.9812 41.5339 96.1583 41.5547 96.3458 41.5547C96.5385 41.5547 96.7521 41.5339 96.9864 41.4922C97.2208 41.4453 97.4422 41.3698 97.6505 41.2656C97.864 41.1615 98.0463 41.026 98.1974 40.8594C98.3484 40.6875 98.4344 40.4792 98.4552 40.2344V39.4375C98.3823 39.4323 98.312 39.4297 98.2442 39.4297C98.1817 39.4297 98.1219 39.4297 98.0646 39.4297C97.5073 39.4297 97.0333 39.4583 96.6427 39.5156C96.2521 39.5677 95.9317 39.6458 95.6817 39.75C95.437 39.8542 95.2573 39.9818 95.1427 40.1328C95.0281 40.2839 94.9708 40.4531 94.9708 40.6406ZM104.76 38.7812C104.76 38.1042 104.872 37.4792 105.096 36.9062C105.325 36.3281 105.648 35.8281 106.065 35.4062C106.486 34.9844 106.992 34.6536 107.58 34.4141C108.169 34.1693 108.828 34.0469 109.557 34.0469C109.932 34.0469 110.296 34.0807 110.65 34.1484C111.005 34.2109 111.338 34.3125 111.65 34.4531C111.968 34.5885 112.257 34.7656 112.518 34.9844C112.783 35.2031 113.015 35.4688 113.213 35.7812V32.6094L111.166 30.8594L116.94 30.625V41.0938L119.057 43H113.213V41.5703C112.843 42.1589 112.361 42.5964 111.768 42.8828C111.179 43.1641 110.52 43.3047 109.791 43.3047C108.906 43.3047 108.145 43.1823 107.51 42.9375C106.874 42.6927 106.354 42.3646 105.947 41.9531C105.541 41.5365 105.242 41.0547 105.049 40.5078C104.856 39.9609 104.76 39.3854 104.76 38.7812ZM108.869 38.6797C108.869 39.1068 108.921 39.4818 109.025 39.8047C109.135 40.1276 109.286 40.3984 109.479 40.6172C109.671 40.8307 109.9 40.9922 110.166 41.1016C110.432 41.2109 110.723 41.2656 111.041 41.2656C111.307 41.2656 111.567 41.2188 111.822 41.125C112.083 41.0312 112.315 40.8828 112.518 40.6797C112.726 40.4714 112.893 40.2031 113.018 39.875C113.148 39.5469 113.213 39.1484 113.213 38.6797C113.213 38.1953 113.15 37.7865 113.025 37.4531C112.906 37.1146 112.744 36.8411 112.541 36.6328C112.343 36.4193 112.114 36.2656 111.854 36.1719C111.593 36.0729 111.322 36.0234 111.041 36.0234C110.723 36.0234 110.432 36.0807 110.166 36.1953C109.9 36.3099 109.671 36.4818 109.479 36.7109C109.286 36.9349 109.135 37.2135 109.025 37.5469C108.921 37.875 108.869 38.2526 108.869 38.6797ZM119.994 38.8047C119.994 38.1693 120.085 37.6094 120.268 37.125C120.455 36.6406 120.705 36.224 121.018 35.875C121.335 35.5208 121.703 35.2266 122.119 34.9922C122.541 34.7578 122.989 34.5703 123.463 34.4297C123.937 34.2891 124.424 34.1901 124.924 34.1328C125.429 34.0755 125.919 34.0469 126.393 34.0469C127.148 34.0469 127.851 34.1302 128.502 34.2969C129.158 34.4635 129.726 34.7318 130.205 35.1016C130.684 35.4714 131.059 35.9583 131.33 36.5625C131.606 37.1615 131.744 37.8932 131.744 38.7578H124.111C124.132 39.2995 124.223 39.7474 124.385 40.1016C124.552 40.4505 124.765 40.7292 125.025 40.9375C125.286 41.1406 125.583 41.2839 125.916 41.3672C126.249 41.4505 126.593 41.4922 126.947 41.4922C127.265 41.4922 127.609 41.474 127.979 41.4375C128.348 41.401 128.718 41.3333 129.088 41.2344C129.458 41.1302 129.812 40.9896 130.15 40.8125C130.489 40.6354 130.783 40.4036 131.033 40.1172L131.83 40.7422C131.7 41.0599 131.518 41.3438 131.283 41.5938C131.049 41.8438 130.781 42.0651 130.479 42.2578C130.177 42.4453 129.848 42.6068 129.494 42.7422C129.145 42.8724 128.786 42.9792 128.416 43.0625C128.046 43.1458 127.677 43.2057 127.307 43.2422C126.937 43.2839 126.583 43.3047 126.244 43.3047C125.291 43.3047 124.429 43.2057 123.658 43.0078C122.893 42.8099 122.236 42.5208 121.69 42.1406C121.148 41.7552 120.729 41.2839 120.432 40.7266C120.14 40.1641 119.994 39.5234 119.994 38.8047ZM127.963 37.5391C127.963 37.1536 127.927 36.8307 127.854 36.5703C127.786 36.3047 127.682 36.0911 127.541 35.9297C127.4 35.7682 127.223 35.6536 127.01 35.5859C126.802 35.513 126.557 35.4766 126.275 35.4766C125.682 35.4766 125.21 35.6562 124.861 36.0156C124.512 36.375 124.283 36.8828 124.174 37.5391H127.963ZM135.002 41.0938V36.3359L132.955 34.5859L138.572 34.3516V35.9609C138.963 35.3464 139.463 34.875 140.072 34.5469C140.687 34.2135 141.382 34.0469 142.158 34.0469C143.023 34.0469 143.713 34.2344 144.229 34.6094C144.749 34.9792 145.124 35.5365 145.354 36.2812C145.729 35.5677 146.242 35.0182 146.893 34.6328C147.544 34.2422 148.289 34.0469 149.127 34.0469C149.731 34.0469 150.247 34.1406 150.674 34.3281C151.106 34.5104 151.458 34.7865 151.729 35.1562C152.005 35.5208 152.205 35.9792 152.33 36.5312C152.455 37.0781 152.518 37.7135 152.518 38.4375V41.125L152.525 41.0938L154.486 43H147.596L148.947 41.1094V38.6016C148.947 38.2682 148.929 37.9531 148.893 37.6562C148.856 37.3594 148.786 37.099 148.682 36.875C148.578 36.651 148.432 36.474 148.244 36.3438C148.062 36.2135 147.825 36.1484 147.533 36.1484C147.049 36.1484 146.637 36.3151 146.299 36.6484C145.96 36.9818 145.734 37.4609 145.619 38.0859C145.619 38.1432 145.619 38.2031 145.619 38.2656C145.624 38.3229 145.627 38.3802 145.627 38.4375V41.0938L147.065 43H140.541L141.979 41.0938V38.6016C141.979 38.2682 141.96 37.9531 141.924 37.6562C141.887 37.3594 141.817 37.099 141.713 36.875C141.609 36.651 141.463 36.474 141.275 36.3438C141.093 36.2135 140.856 36.1484 140.565 36.1484C140.273 36.1484 140.005 36.2135 139.76 36.3438C139.515 36.4688 139.304 36.6536 139.127 36.8984C138.95 37.138 138.812 37.4349 138.713 37.7891C138.619 38.138 138.572 38.5391 138.572 38.9922V41.0938L140.01 43H132.885L135.002 41.0938ZM158.19 42.4766C158.127 42.7057 158.096 42.9297 158.096 43.1484C158.096 43.3984 158.13 43.6354 158.197 43.8594C158.265 44.0885 158.374 44.2891 158.525 44.4609C158.677 44.6328 158.869 44.7682 159.104 44.8672C159.343 44.9714 159.635 45.0234 159.979 45.0234C160.265 45.0234 160.518 44.9661 160.736 44.8516C160.955 44.7422 161.145 44.5938 161.307 44.4062C161.473 44.224 161.611 44.0104 161.721 43.7656C161.835 43.5208 161.927 43.2656 161.994 43H159.518L156.502 36.0469L154.51 34.3516H161.455L160.541 35.6484L162.416 41.3359L163.971 35.7031L163.025 34.3516H168.721L166.885 35.8594L164.275 43C163.999 43.7604 163.692 44.3802 163.354 44.8594C163.015 45.3438 162.64 45.7214 162.229 45.9922C161.822 46.2682 161.377 46.4557 160.893 46.5547C160.414 46.6589 159.89 46.7109 159.322 46.7109C158.645 46.7109 158.041 46.6354 157.51 46.4844C156.984 46.3385 156.539 46.1276 156.174 45.8516C155.809 45.5807 155.531 45.25 155.338 44.8594C155.15 44.474 155.057 44.0391 155.057 43.5547C155.057 43.4349 155.065 43.3047 155.08 43.1641C155.101 43.0234 155.122 42.8984 155.143 42.7891L158.19 42.4766Z" fill="black"/>
<g clip-path="url(#clip0)">
<path d="M25.5986 51.9319C39.7363 51.9319 51.1973 40.9781 51.1973 27.4659C51.1973 13.9538 39.7363 3 25.5986 3C11.4609 3 0 13.9538 0 27.4659C0 40.9781 11.4609 51.9319 25.5986 51.9319Z" fill="url(#paint0_linear)"/>
<g filter="url(#filter0_i)">
<path d="M22.1797 6.31769L28.7135 15.9968L22.2537 18.0644L22.1797 6.31769Z" fill="black" fill-opacity="0.2"/>
<path d="M24.6234 17.3689L26.1162 16.8915L26.8512 19.2708L25.3584 19.7483L24.6234 17.3689Z" fill="black" fill-opacity="0.2"/>
</g>
<g filter="url(#filter1_di)">
<path d="M5.08199 30.4068V25.5068H5.33114V30.4068H5.08199ZM6.32775 30.4068V25.5068H6.5769V30.4068H6.32775ZM7.07521 30.4068V25.5068H7.57351V30.4068H7.07521ZM7.82332 30.4068V25.5068H8.07247V30.4068H7.82332ZM8.32162 30.4068V25.5068H8.81993V30.4068H8.32162ZM9.31823 30.4068V25.5068H9.56739V30.4068H9.31823ZM10.5647 30.4068V25.5068H11.5613V30.4068H10.5647ZM11.8104 30.4068V25.5068H12.0596V30.4068H11.8104ZM12.5579 30.4068V25.5068H12.8071V30.4068H12.5579ZM13.306 30.4068V25.5068H13.5551V30.4068H13.306ZM14.5517 30.4068V25.5068H14.8009V30.4068H14.5517ZM15.0501 30.4068V25.5068H15.5484V30.4068H15.0501ZM16.0473 30.4068V25.5068H16.2964V30.4068H16.0473ZM16.7947 30.4068V25.5068H17.2931V30.4068H16.7947ZM18.2897 30.4068V25.5068H18.5388V30.4068H18.2897ZM18.7886 30.4068V25.5068H19.0377V30.4068H18.7886ZM19.2869 30.4068V25.5068H19.7852V30.4068H19.2869ZM20.2835 30.4068V25.5068H20.5327V30.4068H20.2835ZM21.53 30.4068V25.5068H21.7791V30.4068H21.53ZM22.0283 30.4068V25.5068H22.2775V30.4068H22.0283ZM22.7758 30.4068V25.5068H23.7724V30.4068H22.7758ZM24.2713 30.4068V25.5068H24.7696V30.4068H24.2713ZM25.0188 30.4068V25.5068H25.5171V30.4068H25.0188ZM26.0154 30.4068V25.5068H26.5137V30.4068H26.0154ZM27.0126 30.4068V25.5068H27.2618V30.4068H27.0126ZM27.7601 30.4068V25.5068H28.0092V30.4068H27.7601ZM28.2584 30.4068V25.5068H28.7567V30.4068H28.2584ZM29.7539 30.4068V25.5068H30.0031V30.4068H29.7539ZM30.9997 30.4068V25.5068H31.2488V30.4068H30.9997ZM31.498 30.4068V25.5068H31.9963V30.4068H31.498ZM32.4953 30.4068V25.5068H32.7445V30.4068H32.4953ZM33.2428 30.4068V25.5068H33.4919V30.4068H33.2428ZM33.7411 30.4068V25.5068H34.2394V30.4068H33.7411ZM35.2366 30.4068V25.5068H35.4858V30.4068H35.2366ZM36.4824 30.4068V25.5068H36.7315V30.4068H36.4824ZM37.2298 30.4068V25.5068H37.7281V30.4068H37.2298ZM37.9779 30.4068V25.5068H38.2271V30.4068H37.9779ZM38.4762 30.4068V25.5068H38.9745V30.4068H38.4762ZM39.4728 30.4068V25.5068H39.722V30.4068H39.4728ZM40.7192 30.4068V25.5068H41.7158V30.4068H40.7192ZM41.965 30.4068V25.5068H42.7124V30.4068H41.965ZM42.9616 30.4068V25.5068H43.2107V30.4068H42.9616ZM43.4606 30.4068V25.5068H43.9589V30.4068H43.4606ZM44.2081 30.4068V25.5068H44.7064V30.4068H44.2081ZM44.9555 30.4068V25.5068H45.9521V30.4068H44.9555Z" fill="#292929"/>
<path d="M5.08199 31.2374H46.2013V31.6526H5.08199V31.2374Z" fill="#292929"/>
</g>
<path d="M26.119 38.1307C25.8556 37.8671 25.4283 37.8671 25.1648 38.1307L20.8704 42.4251C20.607 42.6886 20.607 43.1159 20.8704 43.3793C21.1339 43.6428 21.5612 43.6428 21.8247 43.3793L25.6419 39.5621L29.4592 43.3793C29.7226 43.6428 30.1499 43.6428 30.4134 43.3793C30.6769 43.1159 30.6769 42.6886 30.4134 42.4251L26.119 38.1307ZM26.3167 46.9649V38.6079H24.9671V46.9649H26.3167Z" fill="black" fill-opacity="0.2"/>
</g>
<defs>
<filter id="filter0_i" x="22.1797" y="6.31769" width="6.53379" height="17.4306" filterUnits="userSpaceOnUse" color-interpolation-filters="sRGB">
<feFlood flood-opacity="0" result="BackgroundImageFix"/>
<feBlend mode="normal" in="SourceGraphic" in2="BackgroundImageFix" result="shape"/>
<feColorMatrix in="SourceAlpha" type="matrix" values="0 0 0 0 0 0 0 0 0 0 0 0 0 0 0 0 0 0 127 0" result="hardAlpha"/>
<feOffset dy="4"/>
<feGaussianBlur stdDeviation="2"/>
<feComposite in2="hardAlpha" operator="arithmetic" k2="-1" k3="1"/>
<feColorMatrix type="matrix" values="0 0 0 0 0 0 0 0 0 0 0 0 0 0 0 0 0 0 0.3 0"/>
<feBlend mode="normal" in2="shape" result="effect1_innerShadow"/>
</filter>
<filter id="filter1_di" x="1.08199" y="25.5068" width="49.1193" height="14.1458" filterUnits="userSpaceOnUse" color-interpolation-filters="sRGB">
<feFlood flood-opacity="0" result="BackgroundImageFix"/>
<feColorMatrix in="SourceAlpha" type="matrix" values="0 0 0 0 0 0 0 0 0 0 0 0 0 0 0 0 0 0 127 0"/>
<feOffset dy="4"/>
<feGaussianBlur stdDeviation="2"/>
<feColorMatrix type="matrix" values="0 0 0 0 0 0 0 0 0 0 0 0 0 0 0 0 0 0 0.25 0"/>
<feBlend mode="normal" in2="BackgroundImageFix" result="effect1_dropShadow"/>
<feBlend mode="normal" in="SourceGraphic" in2="effect1_dropShadow" result="shape"/>
<feColorMatrix in="SourceAlpha" type="matrix" values="0 0 0 0 0 0 0 0 0 0 0 0 0 0 0 0 0 0 127 0" result="hardAlpha"/>
<feOffset dy="4"/>
<feGaussianBlur stdDeviation="2"/>
<feComposite in2="hardAlpha" operator="arithmetic" k2="-1" k3="1"/>
<feColorMatrix type="matrix" values="0 0 0 0 0 0 0 0 0 0 0 0 0 0 0 0 0 0 0.25 0"/>
<feBlend mode="normal" in2="shape" result="effect2_innerShadow"/>
</filter>
<linearGradient id="paint0_linear" x1="25.5986" y1="3" x2="25.5986" y2="51.9319" gradientUnits="userSpaceOnUse">
<stop offset="0.00520833" stop-color="#00BD60"/>
<stop offset="0.411458" stop-color="#177245"/>
<stop offset="0.65625" stop-color="#177245"/>
<stop offset="1" stop-color="#1A3126"/>
</linearGradient>
<clipPath id="clip0">
<rect y="3" width="51.2839" height="49" fill="white"/>
</clipPath>
</defs>
</svg>
