<svg width="328" height="102" viewBox="0 0 328 102" fill="none" xmlns="http://www.w3.org/2000/svg">
<path d="M129.936 37.0898C129.936 35.8203 130.146 34.6484 130.566 33.5742C130.996 32.4902 131.601 31.5527 132.382 30.7617C133.173 29.9707 134.121 29.3506 135.224 28.9014C136.328 28.4424 137.563 28.2129 138.93 28.2129C139.633 28.2129 140.317 28.2764 140.981 28.4033C141.645 28.5205 142.27 28.7109 142.856 28.9746C143.452 29.2285 143.994 29.5605 144.482 29.9707C144.98 30.3809 145.415 30.8789 145.786 31.4648V25.5176L141.948 22.2363L152.773 21.7969V41.4258L156.743 45H145.786V42.3193C145.092 43.4229 144.189 44.2432 143.076 44.7803C141.972 45.3076 140.737 45.5713 139.37 45.5713C137.709 45.5713 136.284 45.3418 135.092 44.8828C133.901 44.4238 132.924 43.8086 132.163 43.0371C131.401 42.2559 130.839 41.3525 130.478 40.3271C130.117 39.3018 129.936 38.2227 129.936 37.0898ZM137.641 36.8994C137.641 37.7002 137.739 38.4033 137.934 39.0088C138.139 39.6143 138.422 40.1221 138.784 40.5322C139.145 40.9326 139.575 41.2354 140.073 41.4404C140.571 41.6455 141.118 41.748 141.713 41.748C142.211 41.748 142.7 41.6602 143.178 41.4844C143.667 41.3086 144.101 41.0303 144.482 40.6494C144.873 40.2588 145.185 39.7559 145.419 39.1406C145.664 38.5254 145.786 37.7783 145.786 36.8994C145.786 35.9912 145.668 35.2246 145.434 34.5996C145.209 33.9648 144.907 33.4521 144.526 33.0615C144.155 32.6611 143.725 32.373 143.237 32.1973C142.749 32.0117 142.241 31.9189 141.713 31.9189C141.118 31.9189 140.571 32.0264 140.073 32.2412C139.575 32.4561 139.145 32.7783 138.784 33.208C138.422 33.6279 138.139 34.1504 137.934 34.7754C137.739 35.3906 137.641 36.0986 137.641 36.8994ZM158.501 37.1338C158.501 35.9424 158.671 34.8926 159.013 33.9844C159.365 33.0762 159.834 32.2949 160.419 31.6406C161.015 30.9766 161.704 30.4248 162.485 29.9854C163.276 29.5459 164.116 29.1943 165.004 28.9307C165.893 28.667 166.806 28.4814 167.744 28.374C168.691 28.2666 169.609 28.2129 170.498 28.2129C171.914 28.2129 173.232 28.3691 174.453 28.6816C175.683 28.9941 176.748 29.4971 177.646 30.1904C178.544 30.8838 179.248 31.7969 179.755 32.9297C180.273 34.0527 180.532 35.4248 180.532 37.0459H166.22C166.259 38.0615 166.43 38.9014 166.733 39.5654C167.045 40.2197 167.446 40.7422 167.934 41.1328C168.422 41.5137 168.979 41.7822 169.604 41.9385C170.229 42.0947 170.874 42.1729 171.538 42.1729C172.133 42.1729 172.778 42.1387 173.471 42.0703C174.165 42.002 174.858 41.875 175.551 41.6895C176.245 41.4941 176.909 41.2305 177.543 40.8984C178.178 40.5664 178.73 40.1318 179.199 39.5947L180.693 40.7666C180.449 41.3623 180.107 41.8945 179.668 42.3633C179.228 42.832 178.725 43.2471 178.159 43.6084C177.592 43.96 176.977 44.2627 176.313 44.5166C175.659 44.7607 174.985 44.9609 174.292 45.1172C173.598 45.2734 172.905 45.3857 172.211 45.4541C171.518 45.5322 170.854 45.5713 170.219 45.5713C168.432 45.5713 166.816 45.3857 165.371 45.0146C163.935 44.6436 162.705 44.1016 161.679 43.3887C160.664 42.666 159.877 41.7822 159.321 40.7373C158.774 39.6826 158.501 38.4814 158.501 37.1338ZM173.442 34.7607C173.442 34.0381 173.374 33.4326 173.237 32.9443C173.11 32.4463 172.915 32.0459 172.651 31.7432C172.387 31.4404 172.055 31.2256 171.655 31.0986C171.264 30.9619 170.805 30.8936 170.278 30.8936C169.165 30.8936 168.281 31.2305 167.626 31.9043C166.972 32.5781 166.543 33.5303 166.337 34.7607H173.442ZM185.512 32.5195L181.381 28.7842H194.741L193.115 31.0986L197.055 41.3086L200.117 31.6992L197.832 28.7842H209.389L205.595 31.8164L200.175 45H191.84L185.512 32.5195ZM210.356 36.7676C210.356 35.3809 210.654 34.1553 211.25 33.0908C211.855 32.0264 212.685 31.1328 213.74 30.4102C214.794 29.6875 216.04 29.1406 217.475 28.7695C218.911 28.3984 220.463 28.2129 222.133 28.2129C223.735 28.2129 225.122 28.374 226.293 28.6963C227.475 29.0088 228.452 29.3994 229.223 29.8682L232.285 28.0957V35.1855L228.623 35.625C228.437 35 228.183 34.4189 227.861 33.8818C227.539 33.3447 227.148 32.8809 226.689 32.4902C226.24 32.0996 225.727 31.7969 225.151 31.582C224.575 31.3574 223.945 31.2451 223.261 31.2451C222.636 31.2451 222.011 31.333 221.386 31.5088C220.771 31.6846 220.214 31.9873 219.716 32.417C219.228 32.8369 218.828 33.4033 218.515 34.1162C218.212 34.8193 218.061 35.7031 218.061 36.7676C218.061 37.666 218.217 38.4521 218.53 39.126C218.852 39.7998 219.272 40.3662 219.79 40.8252C220.317 41.2744 220.918 41.6113 221.591 41.8359C222.265 42.0605 222.963 42.1729 223.686 42.1729C224.301 42.1729 224.951 42.1387 225.634 42.0703C226.328 41.9922 227.006 41.8506 227.67 41.6455C228.344 41.4404 228.984 41.1572 229.589 40.7959C230.195 40.4346 230.722 39.9658 231.171 39.3896L232.666 40.5615C232.373 41.3037 231.918 41.9824 231.303 42.5977C230.698 43.2129 229.96 43.7402 229.091 44.1797C228.232 44.6191 227.255 44.9609 226.162 45.2051C225.078 45.4492 223.916 45.5713 222.675 45.5713C220.722 45.5713 218.984 45.3809 217.46 45C215.937 44.6191 214.648 44.0576 213.593 43.3154C212.539 42.5732 211.733 41.6553 211.176 40.5615C210.629 39.458 210.356 38.1934 210.356 36.7676ZM238.789 41.4258V25.5176L234.951 22.2363L245.776 21.7969V31.8018C246.508 30.6494 247.446 29.7656 248.588 29.1504C249.741 28.5254 251.044 28.2129 252.5 28.2129C253.632 28.2129 254.638 28.3887 255.517 28.7402C256.406 29.082 257.148 29.5996 257.744 30.293C258.349 30.9766 258.808 31.8359 259.121 32.8711C259.433 33.8965 259.589 35.0879 259.589 36.4453V41.4258L263.559 45H249.907L252.602 41.4258V36.7529C252.602 36.1279 252.543 35.5371 252.426 34.9805C252.309 34.4238 252.124 33.9355 251.87 33.5156C251.626 33.0957 251.308 32.7637 250.918 32.5195C250.527 32.2754 250.058 32.1533 249.511 32.1533C248.964 32.1533 248.461 32.2754 248.002 32.5195C247.543 32.7539 247.148 33.1006 246.816 33.5596C246.484 34.0088 246.225 34.5654 246.04 35.2295C245.864 35.8838 245.776 36.6357 245.776 37.4854V41.4258L248.471 45H234.819L238.789 41.4258ZM264.965 37.1338C264.965 35.9424 265.136 34.8926 265.478 33.9844C265.83 33.0762 266.298 32.2949 266.884 31.6406C267.48 30.9766 268.168 30.4248 268.95 29.9854C269.741 29.5459 270.581 29.1943 271.469 28.9307C272.358 28.667 273.271 28.4814 274.209 28.374C275.156 28.2666 276.074 28.2129 276.962 28.2129C278.378 28.2129 279.697 28.3691 280.918 28.6816C282.148 28.9941 283.212 29.4971 284.111 30.1904C285.009 30.8838 285.712 31.7969 286.22 32.9297C286.738 34.0527 286.997 35.4248 286.997 37.0459H272.685C272.724 38.0615 272.895 38.9014 273.198 39.5654C273.51 40.2197 273.911 40.7422 274.399 41.1328C274.887 41.5137 275.444 41.7822 276.069 41.9385C276.694 42.0947 277.338 42.1729 278.002 42.1729C278.598 42.1729 279.243 42.1387 279.936 42.0703C280.629 42.002 281.323 41.875 282.016 41.6895C282.71 41.4941 283.374 41.2305 284.008 40.8984C284.643 40.5664 285.195 40.1318 285.664 39.5947L287.158 40.7666C286.914 41.3623 286.572 41.8945 286.132 42.3633C285.693 42.832 285.19 43.2471 284.624 43.6084C284.057 43.96 283.442 44.2627 282.778 44.5166C282.124 44.7607 281.45 44.9609 280.756 45.1172C280.063 45.2734 279.37 45.3857 278.676 45.4541C277.983 45.5322 277.319 45.5713 276.684 45.5713C274.897 45.5713 273.281 45.3857 271.835 45.0146C270.4 44.6436 269.169 44.1016 268.144 43.3887C267.128 42.666 266.342 41.7822 265.786 40.7373C265.239 39.6826 264.965 38.4814 264.965 37.1338ZM279.907 34.7607C279.907 34.0381 279.838 33.4326 279.702 32.9443C279.575 32.4463 279.379 32.0459 279.116 31.7432C278.852 31.4404 278.52 31.2256 278.12 31.0986C277.729 30.9619 277.27 30.8936 276.743 30.8936C275.629 30.8936 274.746 31.2305 274.091 31.9043C273.437 32.5781 273.007 33.5303 272.802 34.7607H279.907ZM293.105 32.7979L289.135 29.2236L300.092 28.7842V31.4941C300.786 30.3809 301.694 29.5557 302.817 29.0186C303.95 28.4814 305.229 28.2129 306.655 28.2129C308.168 28.2129 309.501 28.4473 310.654 28.916C311.816 29.375 312.788 30.0098 313.569 30.8203C314.35 31.6211 314.941 32.5586 315.341 33.6328C315.742 34.707 315.942 35.8594 315.942 37.0898C315.942 38.1836 315.766 39.2432 315.415 40.2686C315.063 41.2842 314.516 42.1875 313.774 42.9785C313.032 43.7598 312.08 44.3896 310.918 44.8682C309.765 45.3369 308.378 45.5713 306.757 45.5713C305.273 45.5713 303.964 45.3174 302.832 44.8096C301.699 44.292 300.786 43.4912 300.092 42.4072V47.8125L305.527 51.3867H289.135L293.105 47.8125V32.7979ZM300.092 36.8994C300.092 37.7783 300.21 38.5254 300.444 39.1406C300.688 39.7559 301.001 40.2588 301.381 40.6494C301.772 41.0303 302.207 41.3086 302.685 41.4844C303.173 41.6602 303.667 41.748 304.165 41.748C304.76 41.748 305.307 41.6455 305.805 41.4404C306.303 41.2354 306.733 40.9326 307.094 40.5322C307.456 40.1221 307.734 39.6143 307.929 39.0088C308.134 38.4033 308.237 37.7002 308.237 36.8994C308.237 36.0986 308.134 35.3906 307.929 34.7754C307.734 34.1504 307.456 33.6279 307.094 33.208C306.733 32.7783 306.303 32.4561 305.805 32.2412C305.307 32.0264 304.76 31.9189 304.165 31.9189C303.637 31.9189 303.129 32.0117 302.641 32.1973C302.153 32.373 301.718 32.6611 301.337 33.0615C300.966 33.4521 300.664 33.9648 300.429 34.5996C300.205 35.2246 300.092 35.9912 300.092 36.8994ZM125.6 79.2207C125.6 78.4395 125.761 77.7656 126.084 77.1992C126.406 76.623 126.84 76.1348 127.387 75.7344C127.934 75.3242 128.574 74.9922 129.306 74.7383C130.039 74.4844 130.815 74.2891 131.635 74.1523C132.456 74.0059 133.295 73.9082 134.155 73.8594C135.024 73.8008 135.869 73.7715 136.689 73.7715C137.148 73.7715 137.631 73.7812 138.139 73.8008C138.657 73.8105 139.174 73.8252 139.692 73.8447C139.672 73.1416 139.609 72.5166 139.501 71.9697C139.404 71.4131 139.233 70.9492 138.989 70.5781C138.754 70.1973 138.422 69.9092 137.993 69.7139C137.573 69.5088 137.031 69.4062 136.367 69.4062C135.937 69.4062 135.512 69.46 135.092 69.5674C134.672 69.6748 134.292 69.8457 133.95 70.0801C133.608 70.3145 133.315 70.6172 133.071 70.9883C132.836 71.3496 132.685 71.7939 132.617 72.3213L126.743 71.5156C126.743 70.8516 126.875 70.2607 127.138 69.7432C127.412 69.2158 127.783 68.7568 128.251 68.3662C128.72 67.9658 129.272 67.6289 129.907 67.3555C130.551 67.082 131.24 66.8623 131.972 66.6963C132.714 66.5303 133.486 66.4082 134.287 66.3301C135.097 66.252 135.903 66.2129 136.704 66.2129C137.67 66.2129 138.593 66.2568 139.472 66.3447C140.361 66.4229 141.186 66.5693 141.948 66.7842C142.709 66.999 143.398 67.2871 144.013 67.6484C144.638 68.0098 145.17 68.4688 145.61 69.0254C146.049 69.582 146.386 70.2461 146.621 71.0176C146.865 71.7891 146.987 72.6875 146.987 73.7129V78.8691C146.987 79.6504 147.177 80.1973 147.558 80.5098C147.949 80.8223 148.476 80.9785 149.14 80.9785V82.6631C149.052 82.751 148.901 82.8486 148.686 82.9561C148.481 83.0537 148.208 83.1465 147.866 83.2344C147.534 83.332 147.138 83.4102 146.679 83.4688C146.22 83.5371 145.693 83.5713 145.097 83.5713C144.375 83.5713 143.725 83.5322 143.149 83.4541C142.573 83.3857 142.07 83.2588 141.64 83.0732C141.22 82.8975 140.869 82.6533 140.585 82.3408C140.302 82.0283 140.087 81.6328 139.941 81.1543C139.453 81.584 138.901 81.9502 138.286 82.2529C137.67 82.5557 137.016 82.8047 136.323 83C135.639 83.1953 134.931 83.3369 134.199 83.4248C133.476 83.5225 132.763 83.5713 132.06 83.5713C131.591 83.5713 131.108 83.5469 130.61 83.498C130.112 83.4492 129.624 83.3613 129.145 83.2344C128.667 83.1172 128.212 82.9561 127.783 82.751C127.353 82.5361 126.977 82.2676 126.655 81.9453C126.333 81.623 126.074 81.2373 125.878 80.7881C125.693 80.3389 125.6 79.8164 125.6 79.2207ZM133.173 78.5762C133.173 78.8398 133.242 79.0791 133.378 79.2939C133.515 79.5088 133.701 79.6895 133.935 79.8359C134.169 79.9824 134.443 80.0947 134.755 80.1729C135.068 80.251 135.4 80.29 135.751 80.29C136.113 80.29 136.513 80.251 136.953 80.1729C137.392 80.085 137.807 79.9434 138.198 79.748C138.598 79.5527 138.94 79.2988 139.223 78.9863C139.506 78.6641 139.668 78.2734 139.707 77.8145V76.3203C139.57 76.3105 139.438 76.3057 139.311 76.3057C139.194 76.3057 139.082 76.3057 138.974 76.3057C137.929 76.3057 137.041 76.3594 136.308 76.4668C135.576 76.5645 134.975 76.7109 134.506 76.9062C134.047 77.1016 133.71 77.3408 133.496 77.624C133.281 77.9072 133.173 78.2246 133.173 78.5762ZM151.528 74.7676C151.528 73.3809 151.826 72.1553 152.421 71.0908C153.027 70.0264 153.857 69.1328 154.912 68.4102C155.966 67.6875 157.211 67.1406 158.647 66.7695C160.083 66.3984 161.635 66.2129 163.305 66.2129C164.907 66.2129 166.293 66.374 167.465 66.6963C168.647 67.0088 169.624 67.3994 170.395 67.8682L173.457 66.0957V73.1855L169.794 73.625C169.609 73 169.355 72.4189 169.033 71.8818C168.71 71.3447 168.32 70.8809 167.861 70.4902C167.412 70.0996 166.899 69.7969 166.323 69.582C165.747 69.3574 165.117 69.2451 164.433 69.2451C163.808 69.2451 163.183 69.333 162.558 69.5088C161.943 69.6846 161.386 69.9873 160.888 70.417C160.4 70.8369 160 71.4033 159.687 72.1162C159.384 72.8193 159.233 73.7031 159.233 74.7676C159.233 75.666 159.389 76.4521 159.702 77.126C160.024 77.7998 160.444 78.3662 160.961 78.8252C161.489 79.2744 162.089 79.6113 162.763 79.8359C163.437 80.0605 164.135 80.1729 164.858 80.1729C165.473 80.1729 166.123 80.1387 166.806 80.0703C167.5 79.9922 168.178 79.8506 168.842 79.6455C169.516 79.4404 170.156 79.1572 170.761 78.7959C171.367 78.4346 171.894 77.9658 172.343 77.3896L173.837 78.5615C173.544 79.3037 173.09 79.9824 172.475 80.5977C171.87 81.2129 171.132 81.7402 170.263 82.1797C169.404 82.6191 168.427 82.9609 167.334 83.2051C166.25 83.4492 165.087 83.5713 163.847 83.5713C161.894 83.5713 160.156 83.3809 158.632 83C157.109 82.6191 155.82 82.0576 154.765 81.3154C153.71 80.5732 152.905 79.6553 152.348 78.5615C151.801 77.458 151.528 76.1934 151.528 74.7676ZM176.782 79.2207C176.782 78.4395 176.943 77.7656 177.265 77.1992C177.587 76.623 178.022 76.1348 178.569 75.7344C179.116 75.3242 179.755 74.9922 180.488 74.7383C181.22 74.4844 181.997 74.2891 182.817 74.1523C183.637 74.0059 184.477 73.9082 185.336 73.8594C186.206 73.8008 187.05 73.7715 187.871 73.7715C188.33 73.7715 188.813 73.7812 189.321 73.8008C189.838 73.8105 190.356 73.8252 190.874 73.8447C190.854 73.1416 190.791 72.5166 190.683 71.9697C190.585 71.4131 190.415 70.9492 190.17 70.5781C189.936 70.1973 189.604 69.9092 189.174 69.7139C188.754 69.5088 188.212 69.4062 187.548 69.4062C187.119 69.4062 186.694 69.46 186.274 69.5674C185.854 69.6748 185.473 69.8457 185.131 70.0801C184.79 70.3145 184.497 70.6172 184.252 70.9883C184.018 71.3496 183.867 71.7939 183.798 72.3213L177.924 71.5156C177.924 70.8516 178.056 70.2607 178.32 69.7432C178.593 69.2158 178.964 68.7568 179.433 68.3662C179.902 67.9658 180.454 67.6289 181.088 67.3555C181.733 67.082 182.421 66.8623 183.154 66.6963C183.896 66.5303 184.668 66.4082 185.468 66.3301C186.279 66.252 187.084 66.2129 187.885 66.2129C188.852 66.2129 189.775 66.2568 190.654 66.3447C191.543 66.4229 192.368 66.5693 193.129 66.7842C193.891 66.999 194.58 67.2871 195.195 67.6484C195.82 68.0098 196.352 68.4688 196.792 69.0254C197.231 69.582 197.568 70.2461 197.802 71.0176C198.046 71.7891 198.168 72.6875 198.168 73.7129V78.8691C198.168 79.6504 198.359 80.1973 198.74 80.5098C199.13 80.8223 199.658 80.9785 200.322 80.9785V82.6631C200.234 82.751 200.083 82.8486 199.868 82.9561C199.663 83.0537 199.389 83.1465 199.047 83.2344C198.715 83.332 198.32 83.4102 197.861 83.4688C197.402 83.5371 196.875 83.5713 196.279 83.5713C195.556 83.5713 194.907 83.5322 194.331 83.4541C193.754 83.3857 193.251 83.2588 192.822 83.0732C192.402 82.8975 192.05 82.6533 191.767 82.3408C191.484 82.0283 191.269 81.6328 191.123 81.1543C190.634 81.584 190.083 81.9502 189.467 82.2529C188.852 82.5557 188.198 82.8047 187.504 83C186.821 83.1953 186.113 83.3369 185.38 83.4248C184.658 83.5225 183.945 83.5713 183.242 83.5713C182.773 83.5713 182.29 83.5469 181.792 83.498C181.293 83.4492 180.805 83.3613 180.327 83.2344C179.848 83.1172 179.394 82.9561 178.964 82.751C178.535 82.5361 178.159 82.2676 177.836 81.9453C177.514 81.623 177.255 81.2373 177.06 80.7881C176.875 80.3389 176.782 79.8164 176.782 79.2207ZM184.355 78.5762C184.355 78.8398 184.423 79.0791 184.56 79.2939C184.697 79.5088 184.882 79.6895 185.117 79.8359C185.351 79.9824 185.625 80.0947 185.937 80.1729C186.25 80.251 186.582 80.29 186.933 80.29C187.294 80.29 187.695 80.251 188.134 80.1729C188.574 80.085 188.989 79.9434 189.379 79.748C189.78 79.5527 190.122 79.2988 190.405 78.9863C190.688 78.6641 190.849 78.2734 190.888 77.8145V76.3203C190.751 76.3105 190.62 76.3057 190.493 76.3057C190.376 76.3057 190.263 76.3057 190.156 76.3057C189.111 76.3057 188.222 76.3594 187.49 76.4668C186.757 76.5645 186.157 76.7109 185.688 76.9062C185.229 77.1016 184.892 77.3408 184.677 77.624C184.462 77.9072 184.355 78.2246 184.355 78.5762ZM202.709 75.0898C202.709 73.8203 202.919 72.6484 203.339 71.5742C203.769 70.4902 204.375 69.5527 205.156 68.7617C205.947 67.9707 206.894 67.3506 207.998 66.9014C209.101 66.4424 210.336 66.2129 211.704 66.2129C212.407 66.2129 213.09 66.2764 213.754 66.4033C214.418 66.5205 215.043 66.7109 215.629 66.9746C216.225 67.2285 216.767 67.5605 217.255 67.9707C217.753 68.3809 218.188 68.8789 218.559 69.4648V63.5176L214.721 60.2363L225.546 59.7969V79.4258L229.516 83H218.559V80.3193C217.866 81.4229 216.962 82.2432 215.849 82.7803C214.746 83.3076 213.51 83.5713 212.143 83.5713C210.483 83.5713 209.057 83.3418 207.866 82.8828C206.674 82.4238 205.698 81.8086 204.936 81.0371C204.174 80.2559 203.613 79.3525 203.251 78.3271C202.89 77.3018 202.709 76.2227 202.709 75.0898ZM210.415 74.8994C210.415 75.7002 210.512 76.4033 210.708 77.0088C210.913 77.6143 211.196 78.1221 211.557 78.5322C211.918 78.9326 212.348 79.2354 212.846 79.4404C213.344 79.6455 213.891 79.748 214.487 79.748C214.985 79.748 215.473 79.6602 215.952 79.4844C216.44 79.3086 216.875 79.0303 217.255 78.6494C217.646 78.2588 217.959 77.7559 218.193 77.1406C218.437 76.5254 218.559 75.7783 218.559 74.8994C218.559 73.9912 218.442 73.2246 218.208 72.5996C217.983 71.9648 217.68 71.4521 217.299 71.0615C216.928 70.6611 216.499 70.373 216.01 70.1973C215.522 70.0117 215.014 69.9189 214.487 69.9189C213.891 69.9189 213.344 70.0264 212.846 70.2412C212.348 70.4561 211.918 70.7783 211.557 71.208C211.196 71.6279 210.913 72.1504 210.708 72.7754C210.512 73.3906 210.415 74.0986 210.415 74.8994ZM231.274 75.1338C231.274 73.9424 231.445 72.8926 231.787 71.9844C232.138 71.0762 232.607 70.2949 233.193 69.6406C233.789 68.9766 234.477 68.4248 235.258 67.9854C236.049 67.5459 236.889 67.1943 237.778 66.9307C238.667 66.667 239.58 66.4814 240.517 66.374C241.464 66.2666 242.382 66.2129 243.271 66.2129C244.687 66.2129 246.005 66.3691 247.226 66.6816C248.457 66.9941 249.521 67.4971 250.419 68.1904C251.318 68.8838 252.021 69.7969 252.529 70.9297C253.046 72.0527 253.305 73.4248 253.305 75.0459H238.994C239.033 76.0615 239.204 76.9014 239.506 77.5654C239.819 78.2197 240.219 78.7422 240.708 79.1328C241.196 79.5137 241.752 79.7822 242.377 79.9385C243.002 80.0947 243.647 80.1729 244.311 80.1729C244.907 80.1729 245.551 80.1387 246.245 80.0703C246.938 80.002 247.631 79.875 248.325 79.6895C249.018 79.4941 249.682 79.2305 250.317 78.8984C250.952 78.5664 251.503 78.1318 251.972 77.5947L253.466 78.7666C253.222 79.3623 252.88 79.8945 252.441 80.3633C252.001 80.832 251.499 81.2471 250.932 81.6084C250.366 81.96 249.751 82.2627 249.086 82.5166C248.432 82.7607 247.758 82.9609 247.065 83.1172C246.372 83.2734 245.678 83.3857 244.985 83.4541C244.292 83.5322 243.627 83.5713 242.993 83.5713C241.206 83.5713 239.589 83.3857 238.144 83.0146C236.709 82.6436 235.478 82.1016 234.453 81.3887C233.437 80.666 232.651 79.7822 232.094 78.7373C231.547 77.6826 231.274 76.4814 231.274 75.1338ZM246.215 72.7607C246.215 72.0381 246.147 71.4326 246.01 70.9443C245.883 70.4463 245.688 70.0459 245.424 69.7432C245.161 69.4404 244.829 69.2256 244.428 69.0986C244.038 68.9619 243.579 68.8936 243.051 68.8936C241.938 68.8936 241.054 69.2305 240.4 69.9043C239.746 70.5781 239.316 71.5303 239.111 72.7607H246.215ZM259.414 79.4258V70.5049L255.576 67.2236L266.108 66.7842V69.8018C266.84 68.6494 267.778 67.7656 268.92 67.1504C270.073 66.5254 271.376 66.2129 272.832 66.2129C274.453 66.2129 275.747 66.5645 276.713 67.2676C277.69 67.9609 278.393 69.0059 278.823 70.4023C279.526 69.0645 280.488 68.0342 281.709 67.3115C282.929 66.5791 284.326 66.2129 285.898 66.2129C287.031 66.2129 287.998 66.3887 288.798 66.7402C289.609 67.082 290.268 67.5996 290.776 68.293C291.293 68.9766 291.669 69.8359 291.904 70.8711C292.138 71.8965 292.255 73.0879 292.255 74.4453V79.4844L292.27 79.4258L295.947 83H283.027L285.561 79.4551V74.7529C285.561 74.1279 285.527 73.5371 285.459 72.9805C285.39 72.4238 285.258 71.9355 285.063 71.5156C284.868 71.0957 284.594 70.7637 284.243 70.5195C283.901 70.2754 283.457 70.1533 282.91 70.1533C282.001 70.1533 281.23 70.4658 280.595 71.0908C279.96 71.7158 279.536 72.6143 279.321 73.7861C279.321 73.8936 279.321 74.0059 279.321 74.123C279.331 74.2305 279.335 74.3379 279.335 74.4453V79.4258L282.031 83H269.799L272.495 79.4258V74.7529C272.495 74.1279 272.46 73.5371 272.392 72.9805C272.324 72.4238 272.192 71.9355 271.997 71.5156C271.801 71.0957 271.528 70.7637 271.176 70.5195C270.835 70.2754 270.39 70.1533 269.843 70.1533C269.296 70.1533 268.793 70.2754 268.335 70.5195C267.876 70.7539 267.48 71.1006 267.148 71.5596C266.816 72.0088 266.557 72.5654 266.372 73.2295C266.196 73.8838 266.108 74.6357 266.108 75.4854V79.4258L268.803 83H255.444L259.414 79.4258ZM302.89 82.0186C302.773 82.4482 302.714 82.8682 302.714 83.2783C302.714 83.7471 302.778 84.1914 302.905 84.6113C303.032 85.041 303.237 85.417 303.52 85.7393C303.803 86.0615 304.165 86.3154 304.604 86.501C305.053 86.6963 305.6 86.7939 306.245 86.7939C306.782 86.7939 307.255 86.6865 307.666 86.4717C308.076 86.2666 308.432 85.9883 308.735 85.6367C309.047 85.2949 309.306 84.8945 309.511 84.4355C309.726 83.9766 309.897 83.498 310.024 83H305.38L299.726 69.9629L295.991 66.7842H309.013L307.299 69.2158L310.815 79.8799L313.73 69.3184L311.958 66.7842H322.636L319.194 69.6113L314.301 83C313.784 84.4258 313.208 85.5879 312.573 86.4863C311.938 87.3945 311.235 88.1025 310.463 88.6104C309.702 89.1279 308.867 89.4795 307.959 89.665C307.06 89.8604 306.079 89.958 305.014 89.958C303.745 89.958 302.612 89.8164 301.616 89.5332C300.629 89.2598 299.794 88.8643 299.111 88.3467C298.427 87.8389 297.905 87.2188 297.543 86.4863C297.192 85.7637 297.016 84.9482 297.016 84.04C297.016 83.8154 297.031 83.5713 297.06 83.3076C297.099 83.0439 297.138 82.8096 297.177 82.6045L302.89 82.0186Z" fill="black"/>
<g clip-path="url(#clip0)">
<path d="M51.6897 98.8624C80.2369 98.8624 103.379 76.7313 103.379 49.4312C103.379 22.1311 80.2369 0 51.6897 0C23.1423 0 0 22.1311 0 49.4312C0 76.7313 23.1423 98.8624 51.6897 98.8624Z" fill="url(#paint0_linear)"/>
<g filter="url(#filter0_i)">
<path d="M44.7859 6.70303L57.9792 26.2587L44.9354 30.4362L44.7859 6.70303Z" fill="black" fill-opacity="0.2"/>
<path d="M49.7204 29.0309L52.7346 28.0665L54.2188 32.8737L51.2046 33.8383L49.7204 29.0309Z" fill="black" fill-opacity="0.2"/>
</g>
<g filter="url(#filter1_di)">
<path d="M10.2617 55.3729V45.4729H10.7648V55.3729H10.2617ZM12.7772 55.3729V45.4729H13.2803V55.3729H12.7772ZM14.2865 55.3729V45.4729H15.2927V55.3729H14.2865ZM15.7971 55.3729V45.4729H16.3002V55.3729H15.7971ZM16.8033 55.3729V45.4729H17.8095V55.3729H16.8033ZM18.8157 55.3729V45.4729H19.3188V55.3729H18.8157ZM21.3326 55.3729V45.4729H23.345V55.3729H21.3326ZM23.848 55.3729V45.4729H24.3511V55.3729H23.848ZM25.3573 55.3729V45.4729H25.8604V55.3729H25.3573ZM26.8679 55.3729V45.4729H27.371V55.3729H26.8679ZM29.3834 55.3729V45.4729H29.8865V55.3729H29.3834ZM30.3896 55.3729V45.4729H31.3958V55.3729H30.3896ZM32.4032 55.3729V45.4729H32.9063V55.3729H32.4032ZM33.9125 55.3729V45.4729H34.9187V55.3729H33.9125ZM36.9311 55.3729V45.4729H37.4342V55.3729H36.9311ZM37.9385 55.3729V45.4729H38.4416V55.3729H37.9385ZM38.9447 55.3729V45.4729H39.9509V55.3729H38.9447ZM40.9571 55.3729V45.4729H41.4602V55.3729H40.9571ZM43.4741 55.3729V45.4729H43.9772V55.3729H43.4741ZM44.4803 55.3729V45.4729H44.9834V55.3729H44.4803ZM45.9896 55.3729V45.4729H48.002V55.3729H45.9896ZM49.0094 55.3729V45.4729H50.0156V55.3729H49.0094ZM50.5187 55.3729V45.4729H51.5249V55.3729H50.5187ZM52.5311 55.3729V45.4729H53.5373V55.3729H52.5311ZM54.5447 55.3729V45.4729H55.0478V55.3729H54.5447ZM56.054 55.3729V45.4729H56.5571V55.3729H56.054ZM57.0602 55.3729V45.4729H58.0664V55.3729H57.0602ZM60.0801 55.3729V45.4729H60.5832V55.3729H60.0801ZM62.5956 55.3729V45.4729H63.0987V55.3729H62.5956ZM63.6017 55.3729V45.4729H64.6079V55.3729H63.6017ZM65.6156 55.3729V45.4729H66.1187V55.3729H65.6156ZM67.1249 55.3729V45.4729H67.628V55.3729H67.1249ZM68.1311 55.3729V45.4729H69.1373V55.3729H68.1311ZM71.1509 55.3729V45.4729H71.654V55.3729H71.1509ZM73.6664 55.3729V45.4729H74.1695V55.3729H73.6664ZM75.1757 55.3729V45.4729H76.1819V55.3729H75.1757ZM76.6863 55.3729V45.4729H77.1894V55.3729H76.6863ZM77.6925 55.3729V45.4729H78.6987V55.3729H77.6925ZM79.7048 55.3729V45.4729H80.2079V55.3729H79.7048ZM82.2216 55.3729V45.4729H84.234V55.3729H82.2216ZM84.7371 55.3729V45.4729H86.2464V55.3729H84.7371ZM86.7495 55.3729V45.4729H87.2526V55.3729H86.7495ZM87.7571 55.3729V45.4729H88.7633V55.3729H87.7571ZM89.2664 55.3729V45.4729H90.2726V55.3729H89.2664ZM90.7757 55.3729V45.4729H92.7881V55.3729H90.7757Z" fill="#292929"/>
<path d="M10.2617 57.0508H93.2912V57.8899H10.2617V57.0508Z" fill="#292929"/>
</g>
<g filter="url(#filter2_d)">
<path d="M52.7405 70.9789C52.2084 70.4463 51.3456 70.4463 50.8136 70.9789L42.1423 79.6552C41.6103 80.1875 41.6103 81.0509 42.1423 81.5832C42.6743 82.1155 43.5372 82.1155 44.0692 81.5832L51.777 73.8709L59.4849 81.5832C60.0169 82.1155 60.8797 82.1155 61.4118 81.5832C61.9438 81.0509 61.9438 80.1875 61.4118 79.6552L52.7405 70.9789ZM53.1396 88.8274V71.9429H50.4145V88.8274H53.1396Z" fill="black" fill-opacity="0.2"/>
</g>
</g>
<defs>
<filter id="filter0_i" x="44.7859" y="6.70303" width="13.1934" height="31.1353" filterUnits="userSpaceOnUse" color-interpolation-filters="sRGB">
<feFlood flood-opacity="0" result="BackgroundImageFix"/>
<feBlend mode="normal" in="SourceGraphic" in2="BackgroundImageFix" result="shape"/>
<feColorMatrix in="SourceAlpha" type="matrix" values="0 0 0 0 0 0 0 0 0 0 0 0 0 0 0 0 0 0 127 0" result="hardAlpha"/>
<feOffset dy="4"/>
<feGaussianBlur stdDeviation="2"/>
<feComposite in2="hardAlpha" operator="arithmetic" k2="-1" k3="1"/>
<feColorMatrix type="matrix" values="0 0 0 0 0 0 0 0 0 0 0 0 0 0 0 0 0 0 0.3 0"/>
<feBlend mode="normal" in2="shape" result="effect1_innerShadow"/>
</filter>
<filter id="filter1_di" x="6.26172" y="45.4729" width="91.0295" height="20.417" filterUnits="userSpaceOnUse" color-interpolation-filters="sRGB">
<feFlood flood-opacity="0" result="BackgroundImageFix"/>
<feColorMatrix in="SourceAlpha" type="matrix" values="0 0 0 0 0 0 0 0 0 0 0 0 0 0 0 0 0 0 127 0"/>
<feOffset dy="4"/>
<feGaussianBlur stdDeviation="2"/>
<feColorMatrix type="matrix" values="0 0 0 0 0 0 0 0 0 0 0 0 0 0 0 0 0 0 0.25 0"/>
<feBlend mode="normal" in2="BackgroundImageFix" result="effect1_dropShadow"/>
<feBlend mode="normal" in="SourceGraphic" in2="effect1_dropShadow" result="shape"/>
<feColorMatrix in="SourceAlpha" type="matrix" values="0 0 0 0 0 0 0 0 0 0 0 0 0 0 0 0 0 0 127 0" result="hardAlpha"/>
<feOffset dy="4"/>
<feGaussianBlur stdDeviation="2"/>
<feComposite in2="hardAlpha" operator="arithmetic" k2="-1" k3="1"/>
<feColorMatrix type="matrix" values="0 0 0 0 0 0 0 0 0 0 0 0 0 0 0 0 0 0 0.25 0"/>
<feBlend mode="normal" in2="shape" result="effect2_innerShadow"/>
</filter>
<filter id="filter2_d" x="35.7433" y="68.5795" width="32.0675" height="30.2479" filterUnits="userSpaceOnUse" color-interpolation-filters="sRGB">
<feFlood flood-opacity="0" result="BackgroundImageFix"/>
<feColorMatrix in="SourceAlpha" type="matrix" values="0 0 0 0 0 0 0 0 0 0 0 0 0 0 0 0 0 0 127 0"/>
<feOffset dy="4"/>
<feGaussianBlur stdDeviation="3"/>
<feColorMatrix type="matrix" values="0 0 0 0 0 0 0 0 0 0 0 0 0 0 0 0 0 0 0.25 0"/>
<feBlend mode="normal" in2="BackgroundImageFix" result="effect1_dropShadow"/>
<feBlend mode="normal" in="SourceGraphic" in2="effect1_dropShadow" result="shape"/>
</filter>
<linearGradient id="paint0_linear" x1="51.6897" y1="0" x2="51.6897" y2="98.8624" gradientUnits="userSpaceOnUse">
<stop offset="0.00520833" stop-color="#00BD60"/>
<stop offset="0.411458" stop-color="#177245"/>
<stop offset="0.635417" stop-color="#177245"/>
<stop offset="1" stop-color="#1A3126"/>
</linearGradient>
<clipPath id="clip0">
<rect width="103.554" height="99" fill="white"/>
</clipPath>
</defs>
</svg>
